<svg width="85" height="85" viewBox="0 0 85 85" fill="none" xmlns="http://www.w3.org/2000/svg">
<path d="M24.7917 60.2083H31.875V42.5H24.7917V60.2083ZM53.125 60.2083H60.2083V24.7917H53.125V60.2083ZM38.9583 60.2083H46.0417V49.5833H38.9583V60.2083ZM38.9583 42.5H46.0417V35.4167H38.9583V42.5ZM17.7083 74.375C15.7604 74.375 14.0923 73.6808 12.704 72.2925C11.3156 70.9042 10.6226 69.2372 10.625 67.2917V17.7083C10.625 15.7604 11.3192 14.0923 12.7075 12.704C14.0958 11.3156 15.7628 10.6226 17.7083 10.625H67.2917C69.2396 10.625 70.9077 11.3192 72.2961 12.7075C73.6844 14.0958 74.3774 15.7628 74.375 17.7083V67.2917C74.375 69.2396 73.6808 70.9077 72.2925 72.2961C70.9042 73.6844 69.2372 74.3774 67.2917 74.375H17.7083Z" fill="white"/>
</svg>
