<svg width="48" height="48" viewBox="0 0 48 48" fill="none" xmlns="http://www.w3.org/2000/svg">
<mask id="mask0_515_2" style="mask-type:luminance" maskUnits="userSpaceOnUse" x="2" y="4" width="44" height="40">
<path d="M24 20C24.9193 20 25.8295 19.8189 26.6788 19.4672C27.5281 19.1154 28.2997 18.5998 28.9497 17.9497C29.5998 17.2997 30.1154 16.5281 30.4672 15.6788C30.8189 14.8295 31 13.9193 31 13C31 12.0807 30.8189 11.1705 30.4672 10.3212C30.1154 9.47194 29.5998 8.70026 28.9497 8.05025C28.2997 7.40024 27.5281 6.88463 26.6788 6.53284C25.8295 6.18106 24.9193 6 24 6C22.1435 6 20.363 6.7375 19.0503 8.05025C17.7375 9.36301 17 11.1435 17 13C17 14.8565 17.7375 16.637 19.0503 17.9497C20.363 19.2625 22.1435 20 24 20Z" fill="white" stroke="white" stroke-width="4" stroke-linecap="round" stroke-linejoin="round"/>
<path d="M12 7.255C11.0734 7.89938 10.3166 8.75848 9.79415 9.75892C9.27173 10.7594 8.99926 11.8714 9 13C8.99936 14.2078 9.31143 15.3953 9.90585 16.4467C10.5003 17.4981 11.3568 18.3778 12.392 19M36 7.255C36.9266 7.89938 37.6834 8.75848 38.2059 9.75892C38.7283 10.7594 39.0007 11.8714 39 13C39.0007 14.1286 38.7283 15.2407 38.2059 16.2411C37.6834 17.2415 36.9266 18.1006 36 18.745" stroke="white" stroke-width="4" stroke-linecap="round" stroke-linejoin="round"/>
<path d="M12 40V42H36V40C36 36.273 36 34.409 35.391 32.938C34.5788 30.9779 33.0213 29.4207 31.061 28.609C29.591 28 27.727 28 24 28C20.273 28 18.409 28 16.939 28.609C15.9683 29.011 15.0863 29.6004 14.3433 30.3433C13.6004 31.0863 13.011 31.9683 12.609 32.939C12 34.408 12 36.273 12 40Z" fill="white" stroke="white" stroke-width="4" stroke-linecap="round" stroke-linejoin="round"/>
<path d="M44 41.9999V40.7999C44 36.3199 44 34.0799 43.128 32.3679C42.361 30.8627 41.1372 29.6389 39.632 28.8719M4 41.9999V40.7999C4 36.3199 4 34.0799 4.872 32.3679C5.63898 30.8627 6.86277 29.6389 8.368 28.8719" stroke="white" stroke-width="4" stroke-linecap="round" stroke-linejoin="round"/>
</mask>
<g mask="url(#mask0_515_2)">
<path d="M0 0H48V48H0V0Z" fill="white"/>
</g>
</svg>
