<svg width="15" height="15" viewBox="0 0 15 15" fill="none" xmlns="http://www.w3.org/2000/svg">
<path d="M13.5 7.00002C13.5008 7.96227 13.2699 8.91056 12.8267 9.76468C12.3835 10.6188 11.7412 11.3536 10.954 11.907L12 14H3L4.046 11.907C3.2035 11.3139 2.52794 10.5138 2.0844 9.5838C1.64086 8.6538 1.44428 7.62526 1.5136 6.59725C1.58291 5.56924 1.9158 4.5764 2.48018 3.71438C3.04456 2.85235 3.82141 2.15018 4.73591 1.67552C5.65041 1.20086 6.67174 0.969698 7.7015 1.0043C8.73127 1.0389 9.73477 1.33811 10.6153 1.87309C11.4959 2.40807 12.2239 3.1608 12.7291 4.05876C13.2344 4.95673 13.4998 5.96968 13.5 7.00002ZM12.298 7.12502H8.995C8.968 7.44502 8.841 7.73702 8.645 7.96902L10.981 10.305C11.7994 9.44518 12.2688 8.31173 12.298 7.12502ZM10.805 10.481L8.469 8.14502C8.33036 8.26275 8.17143 8.35424 8 8.41502V11.775C9.05237 11.6657 10.0388 11.2107 10.805 10.481ZM6.005 7.12502H2.702C2.73118 8.31173 3.2006 9.44518 4.019 10.305L6.355 7.96902C6.15306 7.73114 6.03067 7.436 6.005 7.12502ZM4.195 10.481C4.96133 11.2103 5.94776 11.665 7 11.774V8.41402C6.82865 8.35354 6.66973 8.26239 6.531 8.14502L4.195 10.481ZM12.298 6.87502C12.2688 5.68832 11.7994 4.55487 10.981 3.69502L8.645 6.03102C8.841 6.26302 8.968 6.55502 8.995 6.87502H12.298ZM10.805 3.51902C9.94516 2.70062 8.8117 2.2312 7.625 2.20202V5.50502C7.945 5.53202 8.237 5.65902 8.469 5.85502L10.805 3.51902ZM7.375 5.50502V2.20202C6.1883 2.2312 5.05485 2.70062 4.195 3.51902L6.531 5.85502C6.763 5.65902 7.055 5.53202 7.375 5.50502ZM6.355 6.03102L4.019 3.69502C3.2006 4.55487 2.73118 5.68832 2.702 6.87502H6.005C6.032 6.55502 6.159 6.26302 6.355 6.03102Z" fill="white"/>
</svg>
