<svg width="48" height="48" viewBox="0 0 48 48" fill="none" xmlns="http://www.w3.org/2000/svg">
<mask id="mask0_515_13" style="mask-type:luminance" maskUnits="userSpaceOnUse" x="6" y="2" width="37" height="44">
<path d="M30 30C33 30 35 31.88 35 34H41V4H35C35 6 33 8 30 8C27 8 25 6 25 4H19V18" stroke="white" stroke-width="4" stroke-linecap="round" stroke-linejoin="round"/>
<path d="M30 44H24C24 41.88 22 40 19 40C16 40 14 41.88 14 44H8V14H14C14 16 16 18 19 18C22 18 24 16 24 14H30V44Z" fill="white" stroke="white" stroke-width="4" stroke-linecap="round" stroke-linejoin="round"/>
<path d="M14 26C15.1046 26 16 25.1046 16 24C16 22.8954 15.1046 22 14 22C12.8954 22 12 22.8954 12 24C12 25.1046 12.8954 26 14 26Z" fill="black"/>
<path d="M19 26C20.1046 26 21 25.1046 21 24C21 22.8954 20.1046 22 19 22C17.8954 22 17 22.8954 17 24C17 25.1046 17.8954 26 19 26Z" fill="black"/>
<path d="M24 26C25.1046 26 26 25.1046 26 24C26 22.8954 25.1046 22 24 22C22.8954 22 22 22.8954 22 24C22 25.1046 22.8954 26 24 26Z" fill="black"/>
</mask>
<g mask="url(#mask0_515_13)">
<path d="M0 0H48V48H0V0Z" fill="white"/>
</g>
</svg>
